<svg width="4" height="19" viewBox="0 0 4 19" fill="none" xmlns="http://www.w3.org/2000/svg">
<path d="M3.5 0.545454L3.32955 13.0909H1.35227L1.18182 0.545454H3.5ZM2.34091 18.1364C1.92045 18.1364 1.55966 17.9858 1.25852 17.6847C0.957386 17.3835 0.806818 17.0227 0.806818 16.6023C0.806818 16.1818 0.957386 15.821 1.25852 15.5199C1.55966 15.2187 1.92045 15.0682 2.34091 15.0682C2.76136 15.0682 3.12216 15.2187 3.4233 15.5199C3.72443 15.821 3.875 16.1818 3.875 16.6023C3.875 16.8807 3.80398 17.1364 3.66193 17.3693C3.52557 17.6023 3.34091 17.7898 3.10795 17.9318C2.88068 18.0682 2.625 18.1364 2.34091 18.1364Z" fill="black"/>
</svg>
