<svg width="24" height="24" viewBox="0 0 24 24" fill="none" xmlns="http://www.w3.org/2000/svg">
<mask id="mask0_538_786" style="mask-type:alpha" maskUnits="userSpaceOnUse" x="0" y="0" width="24" height="24">
<rect width="24" height="24" fill="#D9D9D9"/>
</mask>
<g mask="url(#mask0_538_786)">
<path d="M8.00098 16H20.001V6H8.00098V16ZM8.00098 18C7.45098 18 6.98014 17.8042 6.58848 17.4125C6.19681 17.0208 6.00098 16.55 6.00098 16V4C6.00098 3.45 6.19681 2.97917 6.58848 2.5875C6.98014 2.19583 7.45098 2 8.00098 2H20.001C20.551 2 21.0218 2.19583 21.4135 2.5875C21.8051 2.97917 22.001 3.45 22.001 4V16C22.001 16.55 21.8051 17.0208 21.4135 17.4125C21.0218 17.8042 20.551 18 20.001 18H8.00098ZM4.00098 22C3.45098 22 2.98014 21.8042 2.58848 21.4125C2.19681 21.0208 2.00098 20.55 2.00098 20V6H4.00098V20H18.001V22H4.00098Z" fill="#1C1B1F"/>
</g>
</svg>
